<svg width="24" height="24" viewBox="0 0 24 24" fill="none" xmlns="http://www.w3.org/2000/svg">
<path d="M1.96973 12.9399V14.9999C1.96973 19.9999 3.96973 21.9999 8.96973 21.9999H14.9697C19.9697 21.9999 21.9697 19.9999 21.9697 14.9999V12.9999" stroke="#171717" stroke-width="1.5" stroke-linecap="round" stroke-linejoin="round"/>
<path d="M10.9697 2H8.96973C3.96973 2 1.96973 4 1.96973 9" stroke="#171717" stroke-width="1.5" stroke-linecap="round" stroke-linejoin="round"/>
<path d="M18.5102 3.00022C19.1702 2.63022 19.8102 2.32022 20.4102 2.08022C20.8802 1.90022 21.3402 2.04022 21.6302 2.33022C21.9302 2.63022 22.0802 3.09022 21.8902 3.56022C20.6602 6.63022 17.5702 10.8102 14.9902 12.8802L13.4102 14.1402C13.2102 14.2902 13.0102 14.4102 12.7802 14.5002C12.7802 14.3502 12.7702 14.2002 12.7502 14.0402C12.6602 13.3702 12.3602 12.7402 11.8202 12.2102C11.2702 11.6602 10.6102 11.3502 9.9302 11.2602C9.7702 11.2502 9.6102 11.2402 9.4502 11.2502C9.5402 11.0002 9.6702 10.7702 9.8402 10.5802L11.0902 9.00022C12.1602 7.66022 13.8102 6.18022 15.5802 4.89022" stroke="#171717" stroke-width="1.5" stroke-linecap="round" stroke-linejoin="round"/>
<path d="M12.7801 14.49C12.7801 15.37 12.4401 16.21 11.8101 16.85C11.3201 17.34 10.6601 17.68 9.87009 17.78L7.90009 17.99C6.83009 18.11 5.91009 17.2 6.03009 16.11L6.24009 14.14C6.43009 12.39 7.89009 11.27 9.45009 11.24C9.61009 11.23 9.77009 11.24 9.93009 11.25C10.6101 11.34 11.2701 11.65 11.8201 12.2C12.3601 12.74 12.6601 13.36 12.7501 14.03C12.7701 14.19 12.7801 14.35 12.7801 14.49Z" stroke="#171717" stroke-width="1.5" stroke-linecap="round" stroke-linejoin="round"/>
<path d="M15.8203 11.9799C15.8203 9.88994 14.1303 8.18994 12.0303 8.18994" stroke="#171717" stroke-width="1.5" stroke-linecap="round" stroke-linejoin="round"/>
</svg>
