<svg width="24" height="24" viewBox="0 0 24 24" fill="none" xmlns="http://www.w3.org/2000/svg">
<g id="vuesax/broken/building">
<g id="building">
<path id="Vector" d="M1.97021 5.94998V5.08998C1.97021 2.46998 3.92021 1.27998 6.31021 2.44998L10.7502 4.62998C11.7102 5.09998 12.5002 6.34998 12.5002 7.40998V22H4.08021C2.92021 22 1.97021 21.07 1.97021 19.93V10.02" stroke="#171717" stroke-width="1.5" stroke-linecap="round" stroke-linejoin="round"/>
<path id="Vector_2" d="M21.97 15.06V18.84C21.97 21 20.97 22 18.81 22H12.5V10.42L12.97 10.52L17.47 11.53L19.5 11.98C20.82 12.27 21.9 12.95 21.96 14.87C21.97 14.93 21.97 14.99 21.97 15.06Z" stroke="#171717" stroke-width="1.5" stroke-linecap="round" stroke-linejoin="round"/>
<path id="Vector_3" d="M5.5 9H8.97" stroke="#171717" stroke-width="1.5" stroke-linecap="round" stroke-linejoin="round"/>
<path id="Vector_4" d="M5.5 13H8.97" stroke="#171717" stroke-width="1.5" stroke-linecap="round" stroke-linejoin="round"/>
<path id="Vector_5" d="M17.4702 11.53V14.75C17.4702 15.99 16.4602 17 15.2202 17C13.9802 17 12.9702 15.99 12.9702 14.75V10.52L17.4702 11.53Z" stroke="#171717" stroke-width="1.5" stroke-linecap="round" stroke-linejoin="round"/>
<path id="Vector_6" d="M21.9602 14.87C21.9002 16.05 20.9202 17 19.7202 17C18.4802 17 17.4702 15.99 17.4702 14.75V11.53L19.5002 11.98C20.8202 12.27 21.9002 12.95 21.9602 14.87Z" stroke="#171717" stroke-width="1.5" stroke-linecap="round" stroke-linejoin="round"/>
</g>
</g>
</svg>
