<svg width="24" height="24" viewBox="0 0 24 24" fill="none" xmlns="http://www.w3.org/2000/svg">
<g id="vuesax/broken/clipboard">
<g id="clipboard">
<path id="Vector" d="M13.89 2.88002C17.03 3.37002 18.5 4.65002 18.63 7.15002C18.67 7.76002 18.62 8.45002 18.5 9.22002L17.77 13.91C17.15 17.82 15.34 19.14 11.43 18.53L6.74001 17.79C5.39001 17.58 4.35001 17.22 3.59001 16.68C2.14001 15.67 1.72001 14.01 2.12001 11.45L2.86001 6.76002C3.48001 2.85002 5.29001 1.53002 9.20001 2.14002" stroke="#171717" stroke-width="1.5" stroke-linecap="round" stroke-linejoin="round"/>
<path id="Vector_2" d="M20.5 13.47L19 17.98C17.75 21.74 15.75 22.74 11.99 21.49L7.48 19.99C5.21 19.24 3.95 18.2 3.59 16.68C4.35 17.22 5.39 17.58 6.74 17.79L11.43 18.53C15.34 19.14 17.15 17.82 17.77 13.91L18.5 9.22002C18.62 8.45002 18.67 7.76002 18.63 7.15002C21.02 8.42002 21.54 10.34 20.5 13.47Z" stroke="#171717" stroke-width="1.5" stroke-linecap="round" stroke-linejoin="round"/>
<path id="Vector_3" d="M8.24 8.98C9.20098 8.98 9.98 8.20098 9.98 7.24C9.98 6.27902 9.20098 5.5 8.24 5.5C7.27902 5.5 6.5 6.27902 6.5 7.24C6.5 8.20098 7.27902 8.98 8.24 8.98Z" stroke="#171717" stroke-width="1.5" stroke-linecap="round" stroke-linejoin="round"/>
</g>
</g>
</svg>
