<svg width="500" height="272" viewBox="0 0 500 272" fill="none" xmlns="http://www.w3.org/2000/svg">
<g clip-path="url(#clip0_86_8861)">
<path d="M251.604 271.902C387.184 271.902 497.092 264.625 497.092 255.649C497.092 246.673 387.184 239.396 251.604 239.396C116.025 239.396 6.1167 246.673 6.1167 255.649C6.1167 264.625 116.025 271.902 251.604 271.902Z" fill="#F2F2F2"/>
<path d="M242.196 77.7266C202.199 77.7266 173.482 103.388 173.482 163.266C173.482 231.128 202.199 249.091 242.196 249.091C282.192 249.091 312.62 229.417 312.62 163.266C312.62 92.5535 282.192 77.7266 242.196 77.7266ZM242.459 226.566C214.756 226.566 200.283 210.313 200.283 163.31C200.283 121.837 215.348 99.9669 243.051 99.9669C270.754 99.9669 285.819 114.333 285.819 163.31C285.819 209.128 270.161 226.566 242.459 226.566Z" fill="#2F2E41"/>
<path d="M149.532 201.759H132.995V153.06C132.995 150.473 131.967 147.993 130.138 146.164C128.309 144.335 125.829 143.307 123.242 143.307H119.368C118.087 143.307 116.819 143.559 115.635 144.049C114.452 144.54 113.377 145.258 112.471 146.164C111.566 147.069 110.848 148.144 110.357 149.328C109.867 150.511 109.615 151.779 109.615 153.06V201.759H62.97C62.0105 201.759 61.0672 201.511 60.2317 201.039C59.3962 200.567 58.6969 199.887 58.2016 199.065C57.7062 198.243 57.4318 197.307 57.4048 196.348C57.3778 195.389 57.5992 194.439 58.0474 193.591L107.416 100.147C108.032 98.9822 108.405 97.7045 108.513 96.3913C108.621 95.0782 108.462 93.7567 108.045 92.5067C107.628 91.2567 106.963 90.1042 106.088 89.1185C105.214 88.1329 104.149 87.3347 102.957 86.7721L100.043 85.3958C97.7802 84.3271 95.193 84.1693 92.817 84.955C90.441 85.7408 88.4579 87.4099 87.2781 89.617L27.0666 202.259C26.0413 204.177 25.5049 206.319 25.5049 208.494C25.5049 210.23 25.8469 211.95 26.5115 213.555C27.1761 215.159 28.1502 216.617 29.3781 217.845C30.6061 219.073 32.0639 220.047 33.6684 220.712C35.2728 221.376 36.9924 221.718 38.729 221.718H109.615V252.513C109.615 254.048 109.917 255.568 110.505 256.987C111.092 258.405 111.953 259.694 113.039 260.779C114.124 261.865 115.413 262.726 116.831 263.313C118.25 263.901 119.77 264.203 121.305 264.203C122.84 264.203 124.36 263.901 125.778 263.313C127.197 262.726 128.485 261.865 129.571 260.779C130.656 259.694 131.518 258.405 132.105 256.987C132.692 255.568 132.995 254.048 132.995 252.513V221.719H149.532C152.178 221.719 154.717 220.667 156.588 218.796C158.46 216.924 159.511 214.386 159.511 211.739C159.511 209.092 158.46 206.554 156.588 204.682C154.717 202.811 152.178 201.759 149.532 201.759Z" fill="#FFD720"/>
<path d="M455.75 201.759H439.213V153.06C439.213 150.473 438.186 147.993 436.357 146.164C434.528 144.335 432.047 143.307 429.461 143.307H425.586C424.305 143.307 423.037 143.559 421.854 144.049C420.67 144.54 419.595 145.258 418.69 146.164C417.784 147.069 417.066 148.144 416.576 149.328C416.086 150.511 415.833 151.779 415.833 153.06V201.759H369.188C368.229 201.759 367.285 201.511 366.45 201.039C365.614 200.567 364.915 199.887 364.42 199.065C363.924 198.243 363.65 197.307 363.623 196.348C363.596 195.389 363.817 194.439 364.266 193.591L413.634 100.147C414.25 98.9822 414.623 97.7045 414.731 96.3914C414.839 95.0782 414.68 93.7567 414.263 92.5067C413.847 91.2567 413.181 90.1042 412.307 89.1185C411.432 88.1329 410.367 87.3347 409.176 86.7721L406.261 85.3958C403.998 84.3271 401.411 84.1693 399.035 84.955C396.659 85.7408 394.676 87.4099 393.496 89.617L333.285 202.259C332.26 204.177 331.723 206.319 331.723 208.494C331.723 212.001 333.116 215.365 335.596 217.845C338.076 220.325 341.44 221.718 344.947 221.718H415.833V252.513C415.833 255.613 417.065 258.587 419.257 260.779C421.449 262.972 424.423 264.203 427.523 264.203C430.624 264.203 433.597 262.972 435.789 260.779C437.981 258.587 439.213 255.613 439.213 252.513V221.719H455.75C458.397 221.719 460.935 220.667 462.806 218.796C464.678 216.924 465.729 214.386 465.729 211.739C465.729 209.092 464.678 206.554 462.806 204.682C460.935 202.811 458.397 201.759 455.75 201.759Z" fill="#FFD720"/>
<path d="M154.094 196.057H137.557V147.357C137.557 146.077 137.305 144.808 136.815 143.625C136.324 142.442 135.606 141.367 134.7 140.461C133.795 139.555 132.72 138.837 131.537 138.347C130.353 137.857 129.085 137.604 127.804 137.604H123.93C121.343 137.604 118.862 138.632 117.034 140.461C115.205 142.29 114.177 144.771 114.177 147.357V196.057H67.5321C66.5725 196.057 65.6292 195.809 64.7937 195.337C63.9582 194.865 63.2589 194.185 62.7636 193.363C62.2683 192.541 61.9938 191.605 61.9668 190.646C61.9398 189.686 62.1612 188.736 62.6094 187.888L111.978 94.4446C112.594 93.2795 112.967 92.0019 113.075 90.6887C113.183 89.3755 113.024 88.0541 112.607 86.8041C112.19 85.5541 111.525 84.4015 110.65 83.4159C109.776 82.4303 108.711 81.632 107.52 81.0694L104.605 79.6931C102.342 78.6245 99.7551 78.4667 97.379 79.2524C95.003 80.0381 93.0199 81.7072 91.8401 83.9143L31.6286 196.557C30.6033 198.475 30.0669 200.616 30.0669 202.791C30.0669 206.299 31.4602 209.662 33.9402 212.142C36.4202 214.623 39.7838 216.016 43.291 216.016H114.177V246.81C114.177 248.345 114.479 249.866 115.067 251.284C115.654 252.702 116.515 253.991 117.601 255.077C118.686 256.162 119.975 257.023 121.393 257.611C122.812 258.198 124.332 258.501 125.867 258.501C128.967 258.501 131.941 257.269 134.133 255.077C136.325 252.884 137.557 249.911 137.557 246.81V216.016H154.094C155.404 216.016 156.702 215.758 157.913 215.256C159.123 214.755 160.223 214.02 161.15 213.093C162.077 212.166 162.812 211.066 163.313 209.855C163.815 208.645 164.073 207.347 164.073 206.036C164.073 204.726 163.815 203.428 163.313 202.217C162.812 201.006 162.077 199.906 161.15 198.98C160.223 198.053 159.123 197.318 157.913 196.816C156.702 196.315 155.404 196.057 154.094 196.057Z" stroke="#3F3D56" stroke-miterlimit="10"/>
<path d="M464.303 196.057H447.766V147.357C447.766 144.771 446.739 142.29 444.91 140.461C443.081 138.632 440.6 137.604 438.014 137.604H434.139C432.858 137.604 431.59 137.857 430.407 138.347C429.224 138.837 428.149 139.555 427.243 140.461C426.337 141.367 425.619 142.442 425.129 143.625C424.639 144.808 424.387 146.077 424.387 147.357V196.057H377.742C376.782 196.057 375.839 195.809 375.003 195.337C374.168 194.865 373.468 194.185 372.973 193.363C372.478 192.541 372.203 191.605 372.176 190.646C372.149 189.686 372.371 188.736 372.819 187.888L422.187 94.4446C422.803 93.2795 423.176 92.0019 423.284 90.6887C423.392 89.3755 423.233 88.0541 422.817 86.8041C422.4 85.5541 421.734 84.4015 420.86 83.4159C419.985 82.4303 418.92 81.632 417.729 81.0694L414.815 79.6931C412.552 78.6245 409.965 78.4667 407.588 79.2524C405.212 80.0381 403.229 81.7072 402.05 83.9143L341.838 196.557C340.813 198.475 340.276 200.616 340.276 202.791C340.276 206.299 341.67 209.662 344.15 212.142C346.63 214.623 349.993 216.016 353.501 216.016H424.387V246.81C424.387 249.911 425.618 252.884 427.81 255.077C430.003 257.269 432.976 258.501 436.076 258.501C439.177 258.501 442.15 257.269 444.342 255.077C446.535 252.884 447.766 249.911 447.766 246.81V216.016H464.303C465.614 216.016 466.911 215.758 468.122 215.256C469.333 214.755 470.433 214.02 471.36 213.093C472.286 212.166 473.021 211.066 473.523 209.855C474.024 208.645 474.282 207.347 474.282 206.036C474.282 203.39 473.231 200.851 471.36 198.98C469.488 197.108 466.95 196.057 464.303 196.057Z" stroke="#3F3D56" stroke-miterlimit="10"/>
<path d="M251.319 72.5942C211.323 72.5942 182.605 98.2562 182.605 158.134C182.605 225.995 211.323 243.959 251.319 243.959C291.316 243.959 321.744 224.285 321.744 158.134C321.744 87.4211 291.316 72.5942 251.319 72.5942ZM251.582 221.433C223.88 221.433 209.407 205.18 209.407 158.178C209.407 116.705 224.472 94.8346 252.175 94.8346C279.877 94.8346 294.943 109.2 294.943 158.178C294.942 203.995 279.285 221.433 251.582 221.433Z" stroke="#3F3D56" stroke-miterlimit="10"/>
<path d="M219.259 14.4982C222.575 14.4982 225.263 11.81 225.263 8.49397C225.263 5.17793 222.575 2.48975 219.259 2.48975C215.943 2.48975 213.255 5.17793 213.255 8.49397C213.255 11.81 215.943 14.4982 219.259 14.4982Z" fill="#2F2E41"/>
<path d="M233.903 43.6404C243.204 43.6404 250.744 33.8712 250.744 21.8202C250.744 9.76925 243.204 0 233.903 0C224.603 0 217.063 9.76925 217.063 21.8202C217.063 33.8712 224.603 43.6404 233.903 43.6404Z" fill="#2F2E41"/>
<path opacity="0.1" d="M233.903 37.0506C225.467 37.0506 218.48 29.0129 217.254 18.5254C217.126 19.6191 217.063 20.7193 217.063 21.8204C217.063 33.8714 224.603 43.6406 233.903 43.6406C243.204 43.6406 250.744 33.8714 250.744 21.8204C250.744 20.7193 250.68 19.6191 250.553 18.5254C249.327 29.0129 242.34 37.0506 233.903 37.0506Z" fill="black"/>
<path d="M268.171 85.7214C267.809 87.2077 266.25 88.398 264.523 89.2296C260.892 90.978 256.414 91.4998 252.07 91.6749C250.961 91.7422 249.85 91.7217 248.745 91.6134C246.604 91.4063 244.595 90.4829 243.044 88.9926C242.933 88.9204 242.842 88.8213 242.78 88.7046C242.718 88.5879 242.687 88.4574 242.689 88.3252C242.691 88.193 242.726 88.0635 242.792 87.9488C242.857 87.834 242.951 87.7378 243.064 87.669C245.377 85.1285 249.236 83.5707 253.124 82.4491C256.072 81.5986 261.213 79.3956 264.428 79.6929C267.542 79.9809 268.628 83.8449 268.171 85.7214Z" fill="#3F3D56"/>
<path opacity="0.1" d="M268.171 85.7214C267.809 87.2077 266.25 88.398 264.523 89.2296C260.892 90.978 256.414 91.4998 252.07 91.6749C250.961 91.7422 249.85 91.7217 248.745 91.6134C246.604 91.4063 244.595 90.4829 243.044 88.9926C242.933 88.9204 242.842 88.8213 242.78 88.7046C242.718 88.5879 242.687 88.4574 242.689 88.3252C242.691 88.193 242.726 88.0635 242.792 87.9488C242.857 87.834 242.951 87.7378 243.064 87.669C245.377 85.1285 249.236 83.5707 253.124 82.4491C256.072 81.5986 261.213 79.3956 264.428 79.6929C267.542 79.9809 268.628 83.8449 268.171 85.7214Z" fill="black"/>
<path d="M222.007 74.6135C220.898 76.7858 220.698 79.3092 221.449 81.6293C222.213 83.9319 223.643 85.956 225.558 87.4454C230.256 91.2112 236.721 91.7294 242.742 91.6772C248.018 91.6313 253.287 91.2701 258.521 90.5956C260.274 90.4402 261.998 90.0401 263.64 89.4068C265.605 88.5566 267.332 86.9972 268.032 84.9735C268.731 82.9499 268.235 80.472 266.573 79.1215C265.113 77.9348 263.1 77.7716 261.223 77.6588L250.478 77.013C251.54 75.9387 252.953 75.3311 254.246 74.5501C255.961 73.5139 257.1 71.7742 258.347 70.2057C260.269 67.9092 262.359 65.7598 264.601 63.7752C264.951 65.7813 266.22 67.4286 267.713 68.8127C269.207 70.1969 270.928 71.3112 272.481 72.6291C276.24 75.821 278.947 80.1532 282.901 83.1008C285.621 82.3861 288.164 81.1165 290.37 79.3719L288.833 76.5882C288.705 76.3017 288.506 76.0528 288.254 75.8655C287.819 75.5979 287.258 75.7358 286.753 75.66C285.403 75.4576 284.814 73.899 284.284 72.6408C282.83 69.1867 280.045 66.5069 277.667 63.6103C275.912 61.472 274.355 59.1786 273.016 56.7582C272.217 55.3147 271.485 53.8117 270.401 52.5681C269.317 51.3245 267.798 50.3468 266.148 50.3433C264.691 50.3402 263.346 51.0803 262.093 51.8247C258.276 54.0921 254.603 56.5944 251.096 59.3171C249.261 60.7421 247.437 62.2475 245.284 63.1213C244.377 63.4891 243.422 63.7405 242.552 64.1881C241.029 64.972 239.873 66.2984 238.629 67.4758C234.19 71.6752 228.113 74.396 222.007 74.6135Z" fill="#3F3D56"/>
<path d="M244.473 44.7243C244.423 46.0079 244.15 47.273 243.666 48.463C243.421 49.0565 243.056 49.5931 242.594 50.0393C242.132 50.4855 241.584 50.8318 240.982 51.0565C240.128 51.2854 239.232 51.3144 238.365 51.1414C237.609 51.0625 236.88 50.8142 236.233 50.4151C235.226 49.7224 234.723 48.4864 234.54 47.2768C234.357 46.0686 234.439 44.8341 234.322 43.6171C234.208 42.6342 234.021 41.6611 233.763 40.7058C233.684 40.388 233.603 40.0717 233.524 39.7554C233.446 39.4391 233.37 39.1228 233.3 38.8064C233.236 38.5092 233.175 38.2104 233.124 37.9102C233.082 37.6569 233.044 37.402 233.016 37.1458C232.99 36.386 232.864 35.633 232.64 34.9066C232.429 34.4355 232.166 33.9899 231.855 33.5784C231.721 33.388 231.592 33.1976 231.474 32.9999C231.131 32.4861 230.971 31.8715 231.021 31.2558C231.035 31.1606 231.059 31.0669 231.09 30.9761C231.102 30.9409 231.115 30.9058 231.13 30.8721C231.261 30.8363 231.383 30.7689 231.482 30.6758C231.582 30.5826 231.658 30.4665 231.702 30.3375C231.753 30.0605 231.729 29.7751 231.634 29.5101C231.524 29.14 231.374 28.7829 231.187 28.4455C231.064 28.2229 230.647 27.8216 230.644 27.5668C230.638 27.0542 231.639 26.6413 232.045 26.4392C233.283 25.8191 234.664 25.5392 236.046 25.6279C236.932 25.6879 237.892 25.9603 238.381 26.7028C238.821 27.372 238.762 28.239 238.95 29.0166C238.969 29.1296 239.017 29.2359 239.089 29.3256C239.184 29.4127 239.304 29.4679 239.433 29.4837C239.65 29.5269 239.872 29.5358 240.092 29.5101H240.093C240.151 29.5055 240.209 29.4972 240.266 29.4852C240.608 29.4221 240.932 29.2824 241.212 29.0766C241.394 29.0283 241.577 28.9888 241.761 28.958C241.769 28.9573 241.776 28.9558 241.783 28.9536C242.517 31.2689 242.612 33.7511 243.212 36.1089C243.51 37.2819 243.936 38.4403 243.996 39.647C244 39.6997 244.002 39.7539 244.003 39.8081C244.012 40.1962 243.981 40.5872 243.997 40.9738C244.003 41.1479 244.022 41.3212 244.056 41.4922C244.121 41.7672 244.203 42.0381 244.3 42.3035L244.305 42.3167C244.333 42.4016 244.359 42.488 244.381 42.5744C244.397 42.6374 244.412 42.6989 244.423 42.7619L244.425 42.7663C244.533 43.4134 244.55 44.0726 244.473 44.7243Z" fill="#FBBEBE"/>
<path d="M234.196 29.5817C238.968 29.5817 242.836 25.7134 242.836 20.9415C242.836 16.1696 238.968 12.3013 234.196 12.3013C229.424 12.3013 225.556 16.1696 225.556 20.9415C225.556 25.7134 229.424 29.5817 234.196 29.5817Z" fill="#FBBEBE"/>
<path d="M289.048 68.0174C288.798 65.6601 287.96 63.4034 286.612 61.4538C286.836 62.7864 287.06 64.1186 287.285 65.4502C287.006 65.5312 286.708 65.5287 286.43 65.4431C286.152 65.3575 285.904 65.1926 285.718 64.9684C285.355 64.5142 285.076 63.9976 284.897 63.444C283.915 61.0071 282.632 58.7031 281.076 56.586C275.576 56.1276 270.139 53.8475 265.302 51.1895C260.464 48.533 255.936 45.3478 251.162 42.5786C250.335 42.0783 249.472 41.6378 248.582 41.2605C247.088 40.6616 245.411 40.3511 243.995 39.6467C243.9 39.5999 243.805 39.5501 243.711 39.4988C243.391 39.3248 243.088 39.1214 242.806 38.8911C242.654 38.7673 242.509 38.6342 242.373 38.4927C241.666 37.6707 241.106 36.7336 240.717 35.722C239.957 34.0408 239.686 32.0126 238.927 30.3314C239.276 30.0056 239.668 29.7291 240.091 29.5099H240.093C240.154 29.4776 240.216 29.4469 240.279 29.4176C240.579 29.2762 240.891 29.162 241.212 29.0764C241.393 29.028 241.576 28.9885 241.761 28.9577C241.768 28.957 241.776 28.9555 241.783 28.9534C242.638 28.8139 243.515 28.8833 244.338 29.1554C245.542 29.5626 246.557 30.3753 247.569 31.1442C249.212 32.3024 250.789 33.553 252.291 34.8902C253.126 35.6898 253.887 36.5684 254.785 37.2948C255.531 37.8706 256.317 38.3918 257.138 38.8545C261.996 41.7482 266.853 44.6414 271.712 47.5342C273.356 48.5139 275.002 49.4936 276.61 50.5305C279.053 52.1062 281.407 53.8137 283.761 55.5198C285.147 56.5244 286.534 57.5295 287.919 58.5351C288.374 58.8252 288.773 59.1942 289.098 59.6247C289.385 60.1135 289.564 60.6584 289.621 61.2224C289.969 63.5008 289.773 65.8293 289.048 68.0174Z" fill="#FBBEBE"/>
<path d="M246.615 51.2219C246.033 53.836 243.391 55.4161 242.01 57.7123C240.294 60.5622 240.994 63.8747 241.638 67.139C240.461 68.1538 239.283 69.1687 238.104 70.1836C237.454 70.7415 236.804 71.3024 236.104 71.7959C235.083 72.4798 234.017 73.0924 232.912 73.6294C231.869 74.1654 230.827 74.7019 229.784 75.2388C228.815 75.7838 227.788 76.219 226.722 76.5363C224.667 77.0635 222.485 76.6945 220.453 76.0838C220.213 76.0209 219.983 75.9269 219.768 75.8041C219.641 75.7285 219.53 75.6284 219.442 75.5097C219.242 75.1505 219.169 74.7339 219.236 74.3279C219.442 70.907 220.279 67.5578 221.112 64.2335C221.557 62.2392 222.156 60.2822 222.903 58.3801C223.635 56.7503 224.477 55.1719 225.423 53.6558C226.467 51.7483 227.703 49.9528 229.113 48.2974C229.8 47.6603 230.377 46.9154 230.824 46.092C231.343 44.9058 231.143 43.5453 231.248 42.2537C231.329 41.2832 231.587 40.3358 232.008 39.4581V39.4566C232.234 38.9838 232.506 38.5345 232.82 38.1152C232.962 38.4461 233.104 38.7766 233.246 39.1066C233.339 39.3233 233.432 39.5396 233.524 39.7554C233.644 40.0336 233.763 40.3109 233.881 40.5872C234.222 41.3809 234.563 42.1741 234.903 42.9669C235.271 43.9654 235.795 44.8991 236.456 45.7332C236.758 46.1603 237.165 46.5018 237.639 46.7244C238.112 46.9469 238.635 47.0428 239.156 47.0029C239.678 46.9629 240.18 46.7883 240.614 46.4962C241.048 46.2041 241.399 45.8045 241.632 45.3364C242.124 44.4625 242.481 43.5188 242.689 42.5378C242.979 41.3433 243.019 40.102 242.807 38.8913C242.454 36.5599 241.462 34.1788 240.742 32.0128C240.449 31.2907 240.279 30.5243 240.24 29.7459C240.241 29.6584 240.25 29.5712 240.266 29.4852C240.27 29.4632 240.275 29.4398 240.279 29.4178C240.579 29.2765 240.891 29.1623 241.212 29.0766C241.393 29.0283 241.577 28.9888 241.761 28.958C242.395 32.3907 243.03 35.8233 243.666 39.256C243.681 39.3365 243.697 39.4171 243.712 39.4991C243.802 39.9911 243.895 40.4832 243.997 40.9738C244.089 41.419 244.189 41.8627 244.3 42.3035L244.305 42.3167C244.343 42.4661 244.382 42.614 244.423 42.7619L244.425 42.7662C244.537 43.1704 244.663 43.5717 244.805 43.9671C245.667 46.3497 247.168 48.7485 246.615 51.2219Z" fill="#FFD720"/>
<path d="M281.679 87.9573C281.652 88.4609 281.75 88.9634 281.963 89.4202C282.504 90.4085 283.801 90.6332 284.924 90.7256C291.482 91.2647 298.08 91.0637 304.594 90.1263C304.947 90.1021 305.29 89.9957 305.595 89.8155C306.521 89.1663 305.95 87.5839 304.939 87.0773C303.928 86.5708 302.728 86.6928 301.618 86.4735C300.516 86.196 299.466 85.7408 298.51 85.1256C296.26 83.8328 294.043 82.485 291.859 81.0822C290.558 80.2469 289.023 79.3556 287.559 79.8508C283.591 81.193 281.653 83.6773 281.679 87.9573Z" fill="#3F3D56"/>
<path d="M233.334 38.6235V38.6249C233.323 38.6864 233.313 38.7465 233.3 38.8065C233.284 38.9061 233.265 39.0071 233.246 39.1067C233.064 40.0366 232.842 40.9621 232.585 41.8818C231.882 44.4226 230.941 46.9224 230.007 49.3856C227.5 55.9903 224.992 62.5954 222.484 69.201C221.851 70.8646 221.22 72.5297 220.501 74.1596C220.261 74.7029 220.014 75.2506 219.768 75.8042C218.886 77.7856 218.04 79.8314 217.758 81.9402C217.496 83.3281 217.466 84.7498 217.669 86.1476C217.95 87.53 218.789 88.8802 220.103 89.3913C220.744 89.6417 221.662 89.9771 221.487 90.6434C221.392 91.0095 220.976 91.1882 220.602 91.2497C220.109 91.3283 219.605 91.2974 219.125 91.1592C218.645 91.021 218.202 90.7789 217.826 90.4501C217.124 89.8277 216.586 88.8597 215.653 88.7558C215.007 88.6855 214.412 89.0721 213.821 89.343C211.407 90.4457 208.596 89.674 206.061 88.8905C206.26 87.8639 207.291 87.1873 208.315 86.9823C209.338 86.7758 210.397 86.9223 211.441 86.8945C211.775 86.9123 212.107 86.8269 212.392 86.6499C212.646 86.416 212.825 86.1109 212.904 85.7741C213.577 83.7812 214.077 81.7342 214.399 79.6557C214.736 77.4839 214.877 75.2785 215.357 73.1331C215.73 71.4592 216.307 69.8381 216.802 68.195C217.759 64.8119 218.545 61.3827 219.157 57.9204C219.466 56.482 219.688 55.0261 219.82 53.5608C219.904 52.3453 219.864 51.1239 219.981 49.9128C220.178 48.3372 220.507 46.7809 220.964 45.2603C221.412 43.6011 221.86 41.9429 222.307 40.2856C222.97 37.8326 223.682 35.2845 225.363 33.3778C225.947 32.7066 226.662 32.1624 227.465 31.779C228.268 31.3956 229.141 31.1811 230.03 31.1489C230.363 31.1485 230.696 31.1844 231.021 31.2558C231.075 31.269 231.13 31.2822 231.184 31.2968C231.539 31.3896 231.879 31.5305 232.196 31.7157C232.714 31.3862 232.978 31.5019 233.322 32.01C233.624 32.5478 233.766 33.1604 233.732 33.7761C233.761 35.4011 233.627 37.025 233.334 38.6235Z" fill="#FBBEBE"/>
<path d="M233.903 40.5653L233.881 40.5872L233.762 40.7059L232.585 41.8818L232.008 39.4582L230.03 31.1489C230.363 31.1485 230.696 31.1843 231.021 31.2558C231.035 31.1606 231.058 31.0669 231.09 30.9761L231.184 31.2968L231.854 33.5784L233.124 37.9102L233.333 38.6234V38.6249L233.903 40.5653Z" fill="#FFD720"/>
<path d="M241.374 14.0563C241.373 14.8257 241.221 15.5874 240.925 16.2978C240.63 17.0082 240.197 17.6534 239.652 18.1965C239.455 18.3941 239.243 18.5771 239.019 18.7439C238.009 19.5058 236.778 19.9181 235.512 19.9187H228.487C226.935 19.9163 225.447 19.2979 224.35 18.1993C223.253 17.1007 222.637 15.6117 222.637 14.0592C222.637 12.5067 223.253 11.0177 224.35 9.9191C225.447 8.8205 226.935 8.2021 228.487 8.19971H235.512C237.065 8.20375 238.553 8.8219 239.651 9.9192C240.749 11.0165 241.369 12.5038 241.374 14.0563Z" fill="#2F2E41"/>
<path d="M247.961 14.4982C251.277 14.4982 253.965 11.81 253.965 8.49397C253.965 5.17793 251.277 2.48975 247.961 2.48975C244.645 2.48975 241.957 5.17793 241.957 8.49397C241.957 11.81 244.645 14.4982 247.961 14.4982Z" fill="#2F2E41"/>
<path opacity="0.1" d="M247.815 2.48975C247.741 2.48975 247.668 2.49267 247.595 2.4953C249.148 2.55177 250.619 3.20849 251.698 4.32728C252.777 5.44608 253.379 6.93973 253.379 8.49397C253.379 10.0482 252.777 11.5419 251.698 12.6606C250.619 13.7794 249.148 14.4362 247.595 14.4926C247.668 14.4953 247.741 14.4982 247.815 14.4982C249.407 14.4982 250.934 13.8656 252.06 12.7396C253.186 11.6136 253.819 10.0864 253.819 8.49397C253.819 6.90155 253.186 5.37435 252.06 4.24834C250.934 3.12233 249.407 2.48975 247.815 2.48975Z" fill="black"/>
<path opacity="0.1" d="M219.259 2.48975C219.333 2.48975 219.406 2.49267 219.479 2.4953C217.926 2.55177 216.455 3.20849 215.376 4.32728C214.298 5.44608 213.695 6.93973 213.695 8.49397C213.695 10.0482 214.298 11.5419 215.376 12.6606C216.455 13.7794 217.926 14.4362 219.479 14.4926C219.406 14.4953 219.333 14.4982 219.259 14.4982C217.668 14.4968 216.142 13.8636 215.017 12.7377C213.893 11.6119 213.261 10.0855 213.261 8.49397C213.261 6.90247 213.893 5.37607 215.017 4.25021C216.142 3.12435 217.668 2.49115 219.259 2.48975Z" fill="black"/>
<path opacity="0.1" d="M239.019 18.7441C238.009 19.506 236.778 19.9183 235.512 19.9189H228.487C227.221 19.9183 225.991 19.506 224.98 18.7441H239.019Z" fill="black"/>
<path d="M284.387 62.2503C284.387 62.2503 285.9 66.6119 287.286 65.4506L286.181 59.7495L284.387 62.2503Z" fill="#FBBEBE"/>
<path d="M468.574 195.259C469.983 195.771 471.493 195.949 472.983 195.779C474.473 195.608 475.904 195.094 477.162 194.277C478.419 193.459 479.47 192.361 480.231 191.068C480.991 189.775 481.441 188.323 481.545 186.826C481.649 185.33 481.404 183.83 480.829 182.444C480.255 181.058 479.366 179.825 478.233 178.842C477.101 177.858 475.755 177.151 474.303 176.776C472.85 176.402 471.33 176.369 469.863 176.682L470.106 181.668L467.747 177.395C465.432 178.483 463.644 180.445 462.775 182.851C462.467 183.693 462.279 184.576 462.218 185.471C462.069 187.571 462.609 189.663 463.756 191.43C464.903 193.196 466.594 194.54 468.574 195.259Z" fill="#57B894"/>
<path d="M480.244 253.082C479.411 248.842 483.019 245.083 486.583 242.64C490.147 240.197 494.311 237.796 495.526 233.65C497.274 227.691 492.069 222.234 488.017 217.527C485.012 214.035 482.43 210.199 480.328 206.098C479.485 204.454 478.71 202.736 478.488 200.902C478.169 198.26 479.017 195.632 479.872 193.112C482.72 184.719 485.765 176.396 489.007 168.144" stroke="#3F3D56" stroke-miterlimit="10"/>
<path d="M468.972 193.975C470.382 194.488 471.892 194.666 473.382 194.496C474.872 194.325 476.303 193.811 477.56 192.993C478.818 192.176 479.869 191.077 480.629 189.784C481.39 188.492 481.84 187.04 481.944 185.543C482.048 184.047 481.803 182.546 481.228 181.161C480.653 179.775 479.765 178.542 478.632 177.559C477.499 176.575 476.154 175.868 474.701 175.493C473.249 175.118 471.729 175.086 470.262 175.399L470.505 180.384L468.146 176.112C465.831 177.2 464.043 179.162 463.174 181.567C462.866 182.41 462.678 183.292 462.617 184.188C462.468 186.288 463.008 188.38 464.155 190.146C465.302 191.913 466.993 193.257 468.972 193.975Z" stroke="#3F3D56" stroke-miterlimit="10"/>
<path d="M479.06 166.422C479.614 164.895 480.542 163.533 481.76 162.459C482.979 161.386 484.448 160.636 486.032 160.28L486.829 165.019L488.308 160.042C490.36 160.072 492.351 160.754 493.991 161.989C495.63 163.225 496.835 164.949 497.431 166.914C498.028 168.878 497.984 170.982 497.307 172.92C496.629 174.858 495.354 176.531 493.664 177.697C491.974 178.863 489.957 179.462 487.905 179.407C485.853 179.352 483.871 178.646 482.246 177.392C480.621 176.137 479.436 174.398 478.864 172.426C478.291 170.455 478.36 168.352 479.06 166.422Z" fill="#57B894"/>
<path d="M479.592 164.711C480.145 163.184 481.074 161.821 482.292 160.748C483.51 159.674 484.979 158.925 486.563 158.568L487.361 163.308L488.839 158.33C490.892 158.361 492.882 159.043 494.522 160.278C496.162 161.513 497.367 163.238 497.963 165.202C498.559 167.167 498.516 169.27 497.838 171.209C497.161 173.147 495.885 174.82 494.196 175.986C492.506 177.152 490.489 177.75 488.437 177.696C486.384 177.641 484.403 176.935 482.777 175.68C481.152 174.425 479.968 172.687 479.395 170.715C478.823 168.743 478.892 166.641 479.592 164.711Z" stroke="#3F3D56" stroke-miterlimit="10"/>
<path d="M486.317 217.623C488.553 218.435 491.009 218.394 493.217 217.511C495.425 216.628 497.231 214.962 498.291 212.833C499.35 210.704 499.589 208.259 498.961 205.965C498.334 203.67 496.885 201.687 494.889 200.393L493.753 204.218L492.948 199.423C492.94 199.419 492.931 199.416 492.923 199.414C491.727 198.979 490.457 198.784 489.186 198.841C487.915 198.897 486.668 199.203 485.515 199.742C484.362 200.28 483.327 201.041 482.468 201.98C481.609 202.919 480.944 204.018 480.51 205.214C480.076 206.41 479.882 207.68 479.939 208.951C479.996 210.222 480.303 211.469 480.843 212.622C481.382 213.774 482.143 214.809 483.082 215.667C484.022 216.526 485.121 217.19 486.317 217.623Z" fill="#57B894"/>
<path d="M486.778 215.89C489.014 216.701 491.47 216.661 493.678 215.778C495.886 214.894 497.692 213.229 498.752 211.1C499.811 208.97 500.05 206.525 499.422 204.231C498.795 201.937 497.346 199.954 495.35 198.66L494.214 202.485L493.409 197.69C493.401 197.686 493.392 197.683 493.384 197.68C492.188 197.246 490.918 197.051 489.647 197.107C488.376 197.163 487.129 197.47 485.976 198.008C484.823 198.547 483.788 199.307 482.929 200.246C482.07 201.185 481.405 202.284 480.971 203.48C480.537 204.676 480.343 205.946 480.4 207.217C480.457 208.489 480.764 209.736 481.304 210.888C481.843 212.041 482.604 213.076 483.543 213.934C484.483 214.792 485.582 215.457 486.778 215.89Z" stroke="#3F3D56" stroke-miterlimit="10"/>
<path d="M476.234 233.709C476.618 235.897 477.743 237.885 479.42 239.342C481.096 240.798 483.223 241.634 485.442 241.709C487.662 241.784 489.84 241.093 491.611 239.753C493.381 238.412 494.637 236.503 495.168 234.347C495.699 232.19 495.472 229.917 494.525 227.907C493.579 225.898 491.97 224.276 489.969 223.312C487.969 222.348 485.697 222.101 483.536 222.613C481.375 223.125 479.456 224.365 478.1 226.124L482.415 232.62L476.519 229.172C476.062 230.64 475.964 232.196 476.234 233.709Z" fill="#57B894"/>
<path d="M476.633 232.425C477.017 234.613 478.142 236.602 479.819 238.058C481.495 239.515 483.622 240.351 485.841 240.425C488.061 240.5 490.239 239.809 492.01 238.469C493.78 237.128 495.036 235.22 495.567 233.063C496.098 230.906 495.871 228.633 494.924 226.624C493.978 224.615 492.369 222.992 490.368 222.028C488.367 221.064 486.096 220.818 483.935 221.33C481.774 221.842 479.855 223.081 478.499 224.841L482.814 231.336L476.918 227.889C476.461 229.356 476.363 230.912 476.633 232.425Z" stroke="#3F3D56" stroke-miterlimit="10"/>
<path d="M4.19203 218.854C5.11828 219.191 6.11007 219.308 7.08924 219.196C8.06841 219.084 9.0082 218.746 9.83452 218.209C10.6608 217.672 11.3511 216.95 11.8509 216.101C12.3507 215.251 12.6464 214.297 12.7147 213.314C12.783 212.331 12.622 211.345 12.2443 210.435C11.8667 209.524 11.2828 208.714 10.5387 208.068C9.7945 207.422 8.91043 206.957 7.95613 206.711C7.00183 206.465 6.00338 206.444 5.03949 206.649L5.19877 209.925L3.64912 207.118C2.12822 207.832 0.953268 209.121 0.382454 210.702C0.179734 211.256 0.0564947 211.835 0.0164138 212.424C-0.081401 213.804 0.273315 215.178 1.02681 216.339C1.7803 217.499 2.8915 218.382 4.19203 218.854Z" fill="#57B894"/>
<path d="M11.8595 256.845C11.3124 254.059 13.6828 251.59 16.0242 249.984C18.3656 248.379 21.1014 246.802 21.9003 244.078C23.0484 240.163 19.6285 236.577 16.9666 233.485C14.9918 231.191 13.2958 228.67 11.9143 225.976C11.3137 224.918 10.9046 223.762 10.7059 222.562C10.496 220.826 11.0535 219.099 11.6152 217.444C13.4863 211.929 15.4868 206.461 17.6168 201.039" stroke="#3F3D56" stroke-miterlimit="10"/>
<path d="M4.45376 218.011C5.38 218.348 6.37179 218.465 7.35096 218.353C8.33013 218.241 9.26991 217.903 10.0962 217.366C10.9226 216.829 11.6128 216.107 12.1126 215.257C12.6125 214.408 12.9081 213.454 12.9764 212.471C13.0447 211.488 12.8837 210.502 12.506 209.592C12.1284 208.681 11.5445 207.871 10.8004 207.225C10.0562 206.579 9.17214 206.114 8.21785 205.868C7.26355 205.622 6.2651 205.6 5.30121 205.806L5.4605 209.081L3.91084 206.274C2.38994 206.989 1.21499 208.278 0.644173 209.859C0.441455 210.412 0.318218 210.992 0.278135 211.58C0.180313 212.96 0.535027 214.335 1.28852 215.495C2.04202 216.656 3.15322 217.539 4.45376 218.011Z" stroke="#3F3D56" stroke-miterlimit="10"/>
<path d="M11.0818 199.908C11.4453 198.905 12.0554 198.009 12.8558 197.304C13.6563 196.599 14.6213 196.107 15.6621 195.872L16.186 198.986L17.1575 195.716C18.5062 195.736 19.8137 196.184 20.8912 196.996C21.9687 197.807 22.7604 198.94 23.152 200.231C23.5436 201.522 23.5148 202.904 23.0699 204.177C22.625 205.451 21.7868 206.55 20.6766 207.316C19.5663 208.082 18.2413 208.475 16.8928 208.439C15.5444 208.403 14.2424 207.939 13.1746 207.115C12.1069 206.291 11.3288 205.148 10.9526 203.853C10.5765 202.557 10.6217 201.176 11.0818 199.908Z" fill="#57B894"/>
<path d="M11.4314 198.783C11.7949 197.78 12.405 196.885 13.2054 196.18C14.0059 195.474 14.9709 194.982 16.0117 194.748L16.5357 197.862L17.5071 194.591C18.8558 194.611 20.1633 195.059 21.2408 195.871C22.3183 196.683 23.11 197.816 23.5016 199.106C23.8932 200.397 23.8644 201.779 23.4195 203.053C22.9746 204.326 22.1364 205.425 21.0262 206.191C19.9159 206.957 18.5909 207.351 17.2424 207.315C15.894 207.279 14.592 206.815 13.5243 205.991C12.4565 205.166 11.6784 204.024 11.3022 202.728C10.9261 201.433 10.9713 200.051 11.4314 198.783Z" stroke="#3F3D56" stroke-miterlimit="10"/>
<path d="M15.8498 233.548C17.3187 234.081 18.9324 234.055 20.3831 233.474C21.8339 232.894 23.0204 231.8 23.7164 230.401C24.4124 229.001 24.5693 227.395 24.1572 225.888C23.745 224.381 22.7927 223.078 21.4817 222.227L20.7352 224.741L20.2059 221.59C20.2007 221.587 20.1953 221.585 20.1897 221.584C19.404 221.298 18.5697 221.17 17.7345 221.207C16.8992 221.244 16.0794 221.445 15.322 221.799C14.5645 222.153 13.8842 222.652 13.3199 223.269C12.7556 223.886 12.3184 224.608 12.0333 225.394C11.7482 226.18 11.6207 227.015 11.6583 227.85C11.6958 228.685 11.8975 229.505 12.252 230.262C12.6064 231.019 13.1066 231.699 13.7239 232.263C14.3412 232.827 15.0636 233.264 15.8498 233.548Z" fill="#57B894"/>
<path d="M16.1523 232.409C17.6212 232.942 19.2348 232.916 20.6856 232.335C22.1364 231.755 23.3229 230.661 24.0189 229.262C24.7149 227.863 24.8718 226.256 24.4597 224.749C24.0475 223.242 23.0952 221.939 21.7841 221.088L21.0377 223.602L20.5084 220.451C20.5032 220.449 20.4978 220.447 20.4922 220.445C19.7067 220.16 18.8727 220.032 18.0379 220.07C17.2031 220.107 16.3838 220.309 15.6269 220.663C14.0981 221.377 12.9159 222.67 12.3404 224.257C11.7649 225.844 11.8432 227.594 12.5581 229.123C13.2729 230.651 14.5658 231.834 16.1523 232.409Z" stroke="#3F3D56" stroke-miterlimit="10"/>
<path d="M9.22471 244.117C9.47728 245.554 10.2163 246.861 11.3179 247.818C12.4195 248.775 13.8166 249.324 15.2749 249.373C16.7333 249.422 18.1641 248.968 19.3276 248.087C20.491 247.207 21.3163 245.953 21.665 244.536C22.0137 243.119 21.8645 241.625 21.2426 240.305C20.6207 238.985 19.5639 237.919 18.2493 237.286C16.9347 236.652 15.4423 236.49 14.0225 236.827C12.6026 237.163 11.3416 237.978 10.451 239.133L13.2862 243.401L9.41223 241.136C9.11185 242.1 9.04754 243.123 9.22471 244.117Z" fill="#57B894"/>
<path d="M9.48692 243.274C9.73949 244.711 10.4785 246.017 11.5801 246.974C12.6817 247.931 14.0788 248.48 15.5371 248.53C16.9955 248.579 18.4263 248.125 19.5898 247.244C20.7533 246.363 21.5785 245.109 21.9272 243.692C22.2759 242.276 22.1268 240.782 21.5049 239.462C20.8829 238.142 19.8261 237.076 18.5115 236.442C17.1969 235.809 15.7045 235.647 14.2847 235.983C12.8648 236.32 11.6038 237.134 10.7132 238.29L13.5484 242.558L9.67443 240.293C9.37406 241.257 9.30975 242.279 9.48692 243.274Z" stroke="#3F3D56" stroke-miterlimit="10"/>
<path d="M223.823 158.755C228.192 158.755 231.734 154.171 231.734 148.517C231.734 142.862 228.192 138.278 223.823 138.278C219.453 138.278 215.911 142.862 215.911 148.517C215.911 154.171 219.453 158.755 223.823 158.755Z" fill="#2F2E41"/>
<path d="M266.87 158.988C271.239 158.988 274.781 154.404 274.781 148.75C274.781 143.095 271.239 138.511 266.87 138.511C262.501 138.511 258.958 143.095 258.958 148.75C258.958 154.404 262.501 158.988 266.87 158.988Z" fill="#2F2E41"/>
<path d="M260.82 179C260.82 183.626 254.361 187.378 246.394 187.378C238.426 187.378 231.967 183.626 231.967 179C231.967 174.993 236.811 171.642 243.285 170.823C244.315 170.687 245.354 170.621 246.394 170.623C248.135 170.618 249.873 170.805 251.573 171.182C256.981 172.387 260.82 175.435 260.82 179Z" fill="#2F2E41"/>
<path d="M225.684 156.428C230.053 156.428 233.595 151.844 233.595 146.19C233.595 140.535 230.053 135.951 225.684 135.951C221.315 135.951 217.772 140.535 217.772 146.19C217.772 151.844 221.315 156.428 225.684 156.428Z" stroke="#3F3D56" stroke-miterlimit="10"/>
<path d="M268.732 156.661C273.101 156.661 276.643 152.077 276.643 146.422C276.643 140.768 273.101 136.184 268.732 136.184C264.362 136.184 260.82 140.768 260.82 146.422C260.82 152.077 264.362 156.661 268.732 156.661Z" stroke="#3F3D56" stroke-miterlimit="10"/>
<path d="M248.255 185.051C256.223 185.051 262.682 181.3 262.682 176.674C262.682 172.047 256.223 168.296 248.255 168.296C240.287 168.296 233.828 172.047 233.828 176.674C233.828 181.3 240.287 185.051 248.255 185.051Z" stroke="#3F3D56" stroke-miterlimit="10"/>
<path d="M251.745 171.88C251.749 172.465 251.529 173.03 251.131 173.459C250.943 173.664 250.714 173.828 250.459 173.941C250.205 174.054 249.929 174.113 249.651 174.114H244.997C244.424 174.094 243.881 173.848 243.489 173.429C243.097 173.011 242.886 172.454 242.903 171.88C242.9 171.426 243.033 170.982 243.284 170.604C244.314 170.459 245.353 170.388 246.393 170.391C248.137 170.385 249.876 170.585 251.573 170.986C251.688 171.27 251.746 171.574 251.745 171.88Z" fill="white"/>
<path d="M225.684 145.724C226.969 145.724 228.011 144.682 228.011 143.397C228.011 142.112 226.969 141.07 225.684 141.07C224.399 141.07 223.357 142.112 223.357 143.397C223.357 144.682 224.399 145.724 225.684 145.724Z" fill="white"/>
<path d="M268.964 145.724C270.249 145.724 271.291 144.682 271.291 143.397C271.291 142.112 270.249 141.07 268.964 141.07C267.679 141.07 266.637 142.112 266.637 143.397C266.637 144.682 267.679 145.724 268.964 145.724Z" fill="white"/>
<path opacity="0.3" d="M271.291 167.598C272.576 167.598 273.618 166.557 273.618 165.271C273.618 163.986 272.576 162.944 271.291 162.944C270.006 162.944 268.964 163.986 268.964 165.271C268.964 166.557 270.006 167.598 271.291 167.598Z" fill="#FFD720"/>
<path opacity="0.3" d="M214.515 167.598C215.8 167.598 216.842 166.557 216.842 165.271C216.842 163.986 215.8 162.944 214.515 162.944C213.23 162.944 212.188 163.986 212.188 165.271C212.188 166.557 213.23 167.598 214.515 167.598Z" fill="#FFD720"/>
</g>
<defs>
<clipPath id="clip0_86_8861">
<rect width="500" height="271.902" fill="white"/>
</clipPath>
</defs>
</svg>
