<svg width="25" height="24" viewBox="0 0 25 24" fill="none" xmlns="http://www.w3.org/2000/svg">
<path d="M6.51562 22V15" stroke="#171717" stroke-width="1.5" stroke-miterlimit="10" stroke-linecap="round" stroke-linejoin="round"/>
<path d="M6.51562 5V2" stroke="#171717" stroke-width="1.5" stroke-miterlimit="10" stroke-linecap="round" stroke-linejoin="round"/>
<path d="M17.5156 22V19" stroke="#171717" stroke-width="1.5" stroke-miterlimit="10" stroke-linecap="round" stroke-linejoin="round"/>
<path d="M17.5156 9V2" stroke="#171717" stroke-width="1.5" stroke-miterlimit="10" stroke-linecap="round" stroke-linejoin="round"/>
<path d="M9.51562 11.02V13C9.51562 14.1 9.01562 15 7.51562 15H5.51562C4.01562 15 3.51562 14.1 3.51562 13V7C3.51562 5.9 4.01562 5 5.51562 5H7.51562C9.01562 5 9.51562 5.9 9.51562 7" stroke="#171717" stroke-width="1.5" stroke-miterlimit="10" stroke-linecap="round" stroke-linejoin="round"/>
<path d="M20.5156 11V17C20.5156 18.1 20.0156 19 18.5156 19H16.5156C15.0156 19 14.5156 18.1 14.5156 17V11C14.5156 9.9 15.0156 9 16.5156 9H18.5156C20.0156 9 20.5156 9.9 20.5156 11Z" stroke="#171717" stroke-width="1.5" stroke-miterlimit="10" stroke-linecap="round" stroke-linejoin="round"/>
</svg>
