<svg width="15" height="15" viewBox="0 0 15 15" fill="none" xmlns="http://www.w3.org/2000/svg">
<path d="M5.64395 8.7502C5.4002 8.39395 5.2627 7.9627 5.2627 7.5002C5.2627 6.2627 6.2627 5.2627 7.5002 5.2627C8.7377 5.2627 9.7377 6.2627 9.7377 7.5002C9.7377 8.7377 8.7377 9.7377 7.5002 9.7377" stroke="#696969" stroke-linecap="round" stroke-linejoin="round"/>
<path d="M10.9754 3.4873C9.91914 2.7373 8.73164 2.33105 7.50039 2.33105C5.29414 2.33105 3.23789 3.63105 1.80664 5.88105C1.24414 6.7623 1.24414 8.24356 1.80664 9.12481C3.23789 11.3748 5.29414 12.6748 7.50039 12.6748C9.70664 12.6748 11.7629 11.3748 13.1941 9.12481C13.7566 8.24356 13.7566 6.7623 13.1941 5.88105" stroke="#696969" stroke-linecap="round" stroke-linejoin="round"/>
</svg>
