<svg width="24" height="24" viewBox="0 0 24 24" fill="none" xmlns="http://www.w3.org/2000/svg">
<path d="M2.00014 22.75C1.80014 22.75 1.61011 22.67 1.47011 22.53C1.28011 22.34 1.20016 22.06 1.27016 21.8L2.53017 17.09C1.69017 15.53 1.25014 13.77 1.25014 11.99C1.25014 6.05999 6.07014 1.23999 12.0001 1.23999C17.9301 1.23999 22.7501 6.05999 22.7501 11.99C22.7501 17.92 17.9301 22.74 12.0001 22.74C10.1901 22.74 8.42017 22.29 6.84017 21.43L2.20015 22.72C2.13015 22.74 2.07014 22.75 2.00014 22.75ZM6.94014 19.88C7.07014 19.88 7.20015 19.92 7.32015 19.98C8.73015 20.81 10.3501 21.25 12.0001 21.25C17.1001 21.25 21.2501 17.1 21.2501 12C21.2501 6.9 17.1001 2.75 12.0001 2.75C6.90014 2.75 2.75014 6.9 2.75014 12C2.75014 13.63 3.18013 15.22 3.99013 16.62C4.09013 16.79 4.12015 17 4.07015 17.19L3.07015 20.93L6.75014 19.91C6.81014 19.89 6.88014 19.88 6.94014 19.88Z" fill="#171717"/>
<path d="M14.7402 17.7601C14.1202 17.7601 13.4802 17.62 12.8102 17.33C12.1802 17.06 11.5502 16.7 10.9402 16.25C10.3402 15.81 9.75027 15.31 9.21027 14.77C8.67027 14.22 8.17022 13.6401 7.73022 13.0401C7.28022 12.4101 6.92022 11.79 6.66022 11.18C6.38022 10.52 6.24023 9.87004 6.24023 9.25004C6.24023 8.81004 6.32021 8.39004 6.47021 8.00004C6.63021 7.59004 6.89022 7.22004 7.23022 6.90004C7.87022 6.27004 8.79026 6.04006 9.52026 6.39006C9.77026 6.50006 9.98026 6.68006 10.1403 6.92006L11.3002 8.55003C11.4202 8.71003 11.5103 8.88003 11.5803 9.05003C11.6603 9.25003 11.7103 9.45006 11.7103 9.64006C11.7103 9.90006 11.6402 10.1601 11.5002 10.3901C11.4102 10.5401 11.2802 10.7201 11.1102 10.8901L10.9802 11.03C11.0402 11.11 11.1102 11.21 11.2202 11.33C11.4302 11.57 11.6602 11.83 11.9102 12.08C12.1602 12.32 12.4102 12.56 12.6602 12.77C12.7802 12.87 12.8803 12.95 12.9603 13L13.1002 12.86C13.2802 12.68 13.4603 12.5401 13.6403 12.4501C13.9703 12.2401 14.4802 12.19 14.9302 12.38C15.0902 12.44 15.2502 12.53 15.4202 12.65L17.0903 13.83C17.3203 13.99 17.5002 14.21 17.6202 14.46C17.7202 14.71 17.7603 14.93 17.7603 15.16C17.7603 15.46 17.6902 15.75 17.5602 16.03C17.4302 16.29 17.2802 16.5201 17.1002 16.7301C16.7802 17.0801 16.4103 17.3401 16.0103 17.5101C15.6103 17.6801 15.1802 17.7601 14.7402 17.7601ZM8.79022 7.74003C8.73022 7.74003 8.53027 7.74003 8.28027 7.99003C8.09027 8.17003 7.96024 8.36005 7.87024 8.57005C7.78024 8.78005 7.74023 9.02005 7.74023 9.26005C7.74023 9.68005 7.84022 10.13 8.04022 10.61C8.25022 11.11 8.56025 11.6401 8.94025 12.1701C9.33025 12.7001 9.77025 13.23 10.2603 13.72C10.7503 14.2 11.2702 14.65 11.8102 15.05C12.3302 15.43 12.8603 15.73 13.3903 15.96C14.1503 16.29 14.8502 16.37 15.4202 16.13C15.6202 16.05 15.8002 15.9101 15.9802 15.7301C16.0702 15.6301 16.1403 15.53 16.2003 15.4C16.2303 15.33 16.2502 15.25 16.2502 15.18C16.2502 15.16 16.2502 15.13 16.2202 15.07L14.5502 13.91C14.4802 13.86 14.4102 13.82 14.3502 13.8C14.3102 13.82 14.2503 13.85 14.1403 13.96L13.7603 14.34C13.4703 14.63 13.0103 14.71 12.6403 14.58L12.4603 14.5C12.2303 14.38 11.9702 14.2001 11.6802 13.9501C11.4002 13.7101 11.1303 13.46 10.8403 13.18C10.5603 12.89 10.3103 12.62 10.0703 12.34C9.81025 12.03 9.63025 11.78 9.51025 11.57L9.40027 11.31C9.37027 11.21 9.36023 11.1 9.36023 11C9.36023 10.72 9.46027 10.47 9.65027 10.27L10.0303 9.88005C10.1403 9.77005 10.1803 9.71006 10.2003 9.67006C10.1703 9.60006 10.1303 9.54004 10.0803 9.47004L8.91022 7.82005L8.79022 7.74003Z" fill="#171717"/>
</svg>
